<?xml version="1.0" encoding="utf-8" standalone="no"?>
<!DOCTYPE svg PUBLIC "-//W3C//DTD SVG 1.1//EN"
  "http://www.w3.org/Graphics/SVG/1.1/DTD/svg11.dtd">
<!-- Created with matplotlib (https://matplotlib.org/) -->
<svg height="259.835397pt" version="1.1" viewBox="0 0 466.251338 259.835397" width="466.251338pt" xmlns="http://www.w3.org/2000/svg" xmlns:xlink="http://www.w3.org/1999/xlink">
 <metadata>
  <rdf:RDF xmlns:cc="http://creativecommons.org/ns#" xmlns:dc="http://purl.org/dc/elements/1.1/" xmlns:rdf="http://www.w3.org/1999/02/22-rdf-syntax-ns#">
   <cc:Work>
    <dc:type rdf:resource="http://purl.org/dc/dcmitype/StillImage"/>
    <dc:date>2022-09-28T08:33:17.600432</dc:date>
    <dc:format>image/svg+xml</dc:format>
    <dc:creator>
     <cc:Agent>
      <dc:title>Matplotlib v3.3.2, https://matplotlib.org/</dc:title>
     </cc:Agent>
    </dc:creator>
   </cc:Work>
  </rdf:RDF>
 </metadata>
 <defs>
  <style type="text/css">*{stroke-linecap:butt;stroke-linejoin:round;}</style>
 </defs>
 <g id="figure_1">
  <g id="patch_1">
   <path d="M 0 259.835397 
L 466.251338 259.835397 
L 466.251338 0 
L 0 0 
z
" style="fill:#ffffff;"/>
  </g>
  <g id="axes_1">
   <g id="patch_2">
    <path clip-path="url(#p97ab14b5a6)" d="M 286.79205 215.024695 
L 298.60931 215.024695 
L 292.70068 223.546757 
z
" style="fill:#778899;"/>
   </g>
   <g id="patch_3">
    <path clip-path="url(#p97ab14b5a6)" d="M 332.243049 215.024695 
L 344.060309 215.024695 
L 338.151679 223.546757 
z
" style="fill:#778899;"/>
   </g>
   <g id="patch_4">
    <path clip-path="url(#p97ab14b5a6)" d="M 377.694049 215.024695 
L 389.511309 215.024695 
L 383.602679 223.546757 
z
" style="fill:#778899;"/>
   </g>
   <g id="patch_5">
    <path clip-path="url(#p97ab14b5a6)" d="M 423.145048 215.024695 
L 434.962308 215.024695 
L 429.053678 223.546757 
z
" style="fill:#778899;"/>
   </g>
   <g id="line2d_1">
    <path clip-path="url(#p97ab14b5a6)" d="M 86.353143 43.5608 
L 454.506238 43.5608 
" style="fill:none;stroke:#000000;stroke-linecap:square;stroke-width:2;"/>
   </g>
   <g id="line2d_2">
    <path clip-path="url(#p97ab14b5a6)" d="M 86.353143 89.011799 
L 454.506238 89.011799 
" style="fill:none;stroke:#000000;stroke-linecap:square;stroke-width:2;"/>
   </g>
   <g id="line2d_3">
    <path clip-path="url(#p97ab14b5a6)" d="M 86.353143 134.462798 
L 454.506238 134.462798 
" style="fill:none;stroke:#000000;stroke-linecap:square;stroke-width:2;"/>
   </g>
   <g id="line2d_4">
    <path clip-path="url(#p97ab14b5a6)" d="M 86.353143 179.913798 
L 454.506238 179.913798 
" style="fill:none;stroke:#000000;stroke-linecap:square;stroke-width:2;"/>
   </g>
   <g id="line2d_5">
    <path clip-path="url(#p97ab14b5a6)" d="M 86.353143 223.88764 
L 454.506238 223.88764 
" style="fill:none;stroke:#778899;stroke-linecap:square;stroke-width:2;"/>
   </g>
   <g id="line2d_6">
    <path clip-path="url(#p97ab14b5a6)" d="M 86.353143 226.841955 
L 454.506238 226.841955 
" style="fill:none;stroke:#778899;stroke-linecap:square;stroke-width:2;"/>
   </g>
   <g id="patch_6">
    <path clip-path="url(#p97ab14b5a6)" d="M 238.386736 66.286299 
L 256.112625 66.286299 
L 256.112625 20.8353 
L 238.386736 20.8353 
z
" style="fill:#bdbdbd;opacity:0.6;"/>
   </g>
   <g id="patch_7">
    <path clip-path="url(#p97ab14b5a6)" d="M 238.386736 111.737299 
L 256.112625 111.737299 
L 256.112625 66.286299 
L 238.386736 66.286299 
z
" style="fill:#bdbdbd;opacity:0.6;"/>
   </g>
   <g id="patch_8">
    <path clip-path="url(#p97ab14b5a6)" d="M 238.386736 157.188298 
L 256.112625 157.188298 
L 256.112625 111.737299 
L 238.386736 111.737299 
z
" style="fill:#bdbdbd;opacity:0.6;"/>
   </g>
   <g id="patch_9">
    <path clip-path="url(#p97ab14b5a6)" d="M 238.386736 202.639297 
L 256.112625 202.639297 
L 256.112625 157.188298 
L 238.386736 157.188298 
z
" style="fill:#bdbdbd;opacity:0.6;"/>
   </g>
   <g id="line2d_7">
    <path clip-path="url(#p97ab14b5a6)" d="M 95.443343 229.909897 
L 99.988443 220.819697 
" style="fill:none;stroke:#778899;stroke-linecap:square;stroke-width:1.5;"/>
   </g>
   <g id="line2d_8">
    <path clip-path="url(#p97ab14b5a6)" d="M 110.896682 134.462798 
L 110.896682 43.5608 
" style="fill:none;stroke:#6fa4ff;stroke-linecap:square;stroke-width:2;"/>
   </g>
   <g id="line2d_9">
    <path clip-path="url(#p97ab14b5a6)" d="M 156.347682 134.462798 
L 156.347682 89.011799 
" style="fill:none;stroke:#6fa4ff;stroke-linecap:square;stroke-width:2;"/>
   </g>
   <g id="line2d_10">
    <path clip-path="url(#p97ab14b5a6)" d="M 201.798681 179.913798 
L 201.798681 43.5608 
" style="fill:none;stroke:#bb8bff;stroke-linecap:square;stroke-width:2;"/>
   </g>
   <g id="line2d_11">
    <path clip-path="url(#p97ab14b5a6)" d="M 294.177837 43.5608 
L 294.177837 215.024695 
" style="fill:none;stroke:#778899;stroke-linecap:square;stroke-width:2;"/>
   </g>
   <g id="line2d_12">
    <path clip-path="url(#p97ab14b5a6)" d="M 291.223522 43.5608 
L 291.223522 215.024695 
" style="fill:none;stroke:#778899;stroke-linecap:square;stroke-width:2;"/>
   </g>
   <g id="line2d_13">
    <path clip-path="url(#p97ab14b5a6)" d="M 339.628837 89.011799 
L 339.628837 215.024695 
" style="fill:none;stroke:#778899;stroke-linecap:square;stroke-width:2;"/>
   </g>
   <g id="line2d_14">
    <path clip-path="url(#p97ab14b5a6)" d="M 336.674522 89.011799 
L 336.674522 215.024695 
" style="fill:none;stroke:#778899;stroke-linecap:square;stroke-width:2;"/>
   </g>
   <g id="line2d_15">
    <path clip-path="url(#p97ab14b5a6)" d="M 385.079836 134.462798 
L 385.079836 215.024695 
" style="fill:none;stroke:#778899;stroke-linecap:square;stroke-width:2;"/>
   </g>
   <g id="line2d_16">
    <path clip-path="url(#p97ab14b5a6)" d="M 382.125521 134.462798 
L 382.125521 215.024695 
" style="fill:none;stroke:#778899;stroke-linecap:square;stroke-width:2;"/>
   </g>
   <g id="line2d_17">
    <path clip-path="url(#p97ab14b5a6)" d="M 430.530836 179.913798 
L 430.530836 215.024695 
" style="fill:none;stroke:#778899;stroke-linecap:square;stroke-width:2;"/>
   </g>
   <g id="line2d_18">
    <path clip-path="url(#p97ab14b5a6)" d="M 427.576521 179.913798 
L 427.576521 215.024695 
" style="fill:none;stroke:#778899;stroke-linecap:square;stroke-width:2;"/>
   </g>
   <g id="patch_10">
    <path clip-path="url(#p97ab14b5a6)" d="M 110.896682 47.992272 
C 112.071923 47.992272 113.199186 47.525344 114.030207 46.694324 
C 114.861227 45.863303 115.328155 44.73604 115.328155 43.5608 
C 115.328155 42.385559 114.861227 41.258296 114.030207 40.427275 
C 113.199186 39.596255 112.071923 39.129327 110.896682 39.129327 
C 109.721442 39.129327 108.594178 39.596255 107.763158 40.427275 
C 106.932138 41.258296 106.46521 42.385559 106.46521 43.5608 
C 106.46521 44.73604 106.932138 45.863303 107.763158 46.694324 
C 108.594178 47.525344 109.721442 47.992272 110.896682 47.992272 
z
" style="fill:#6fa4ff;stroke:#6fa4ff;stroke-linejoin:miter;stroke-width:1.5;"/>
   </g>
   <g id="patch_11">
    <path clip-path="url(#p97ab14b5a6)" d="M 110.896682 144.802901 
C 113.63891 144.802901 116.269191 143.713402 118.208239 141.774355 
C 120.147286 139.835307 121.236785 137.205026 121.236785 134.462798 
C 121.236785 131.720571 120.147286 129.090289 118.208239 127.151242 
C 116.269191 125.212194 113.63891 124.122696 110.896682 124.122696 
C 108.154455 124.122696 105.524173 125.212194 103.585126 127.151242 
C 101.646078 129.090289 100.55658 131.720571 100.55658 134.462798 
C 100.55658 137.205026 101.646078 139.835307 103.585126 141.774355 
C 105.524173 143.713402 108.154455 144.802901 110.896682 144.802901 
z
" style="fill:#6fa4ff;stroke:#6fa4ff;stroke-linejoin:miter;stroke-width:2;"/>
   </g>
   <g id="patch_12">
    <path clip-path="url(#p97ab14b5a6)" d="M 156.347682 93.443271 
C 157.522922 93.443271 158.650186 92.976343 159.481206 92.145323 
C 160.312226 91.314303 160.779154 90.187039 160.779154 89.011799 
C 160.779154 87.836559 160.312226 86.709295 159.481206 85.878275 
C 158.650186 85.047254 157.522922 84.580326 156.347682 84.580326 
C 155.172442 84.580326 154.045178 85.047254 153.214158 85.878275 
C 152.383137 86.709295 151.916209 87.836559 151.916209 89.011799 
C 151.916209 90.187039 152.383137 91.314303 153.214158 92.145323 
C 154.045178 92.976343 155.172442 93.443271 156.347682 93.443271 
z
" style="fill:#6fa4ff;stroke:#6fa4ff;stroke-linejoin:miter;stroke-width:1.5;"/>
   </g>
   <g id="patch_13">
    <path clip-path="url(#p97ab14b5a6)" d="M 156.347682 144.802901 
C 159.089909 144.802901 161.720191 143.713402 163.659238 141.774355 
C 165.598286 139.835307 166.687784 137.205026 166.687784 134.462798 
C 166.687784 131.720571 165.598286 129.090289 163.659238 127.151242 
C 161.720191 125.212194 159.089909 124.122696 156.347682 124.122696 
C 153.605455 124.122696 150.975173 125.212194 149.036125 127.151242 
C 147.097078 129.090289 146.007579 131.720571 146.007579 134.462798 
C 146.007579 137.205026 147.097078 139.835307 149.036125 141.774355 
C 150.975173 143.713402 153.605455 144.802901 156.347682 144.802901 
z
" style="fill:#6fa4ff;stroke:#6fa4ff;stroke-linejoin:miter;stroke-width:2;"/>
   </g>
   <g id="patch_14">
    <path clip-path="url(#p97ab14b5a6)" d="M 201.798681 47.992272 
C 202.973921 47.992272 204.101185 47.525344 204.932205 46.694324 
C 205.763226 45.863303 206.230154 44.73604 206.230154 43.5608 
C 206.230154 42.385559 205.763226 41.258296 204.932205 40.427275 
C 204.101185 39.596255 202.973921 39.129327 201.798681 39.129327 
C 200.623441 39.129327 199.496177 39.596255 198.665157 40.427275 
C 197.834137 41.258296 197.367209 42.385559 197.367209 43.5608 
C 197.367209 44.73604 197.834137 45.863303 198.665157 46.694324 
C 199.496177 47.525344 200.623441 47.992272 201.798681 47.992272 
z
" style="fill:#bb8bff;stroke:#bb8bff;stroke-linejoin:miter;stroke-width:1.5;"/>
   </g>
   <g id="patch_15">
    <path clip-path="url(#p97ab14b5a6)" d="M 201.798681 93.443271 
C 202.973921 93.443271 204.101185 92.976343 204.932205 92.145323 
C 205.763226 91.314303 206.230154 90.187039 206.230154 89.011799 
C 206.230154 87.836559 205.763226 86.709295 204.932205 85.878275 
C 204.101185 85.047254 202.973921 84.580326 201.798681 84.580326 
C 200.623441 84.580326 199.496177 85.047254 198.665157 85.878275 
C 197.834137 86.709295 197.367209 87.836559 197.367209 89.011799 
C 197.367209 90.187039 197.834137 91.314303 198.665157 92.145323 
C 199.496177 92.976343 200.623441 93.443271 201.798681 93.443271 
z
" style="fill:#bb8bff;stroke:#bb8bff;stroke-linejoin:miter;stroke-width:1.5;"/>
   </g>
   <g id="patch_16">
    <path clip-path="url(#p97ab14b5a6)" d="M 201.798681 190.2539 
C 204.540908 190.2539 207.17119 189.164402 209.110238 187.225354 
C 211.049285 185.286307 212.138784 182.656025 212.138784 179.913798 
C 212.138784 177.171571 211.049285 174.541289 209.110238 172.602241 
C 207.17119 170.663194 204.540908 169.573695 201.798681 169.573695 
C 199.056454 169.573695 196.426172 170.663194 194.487125 172.602241 
C 192.548077 174.541289 191.458579 177.171571 191.458579 179.913798 
C 191.458579 182.656025 192.548077 185.286307 194.487125 187.225354 
C 196.426172 189.164402 199.056454 190.2539 201.798681 190.2539 
z
" style="fill:#bb8bff;stroke:#bb8bff;stroke-linejoin:miter;stroke-width:2;"/>
   </g>
   <g id="patch_17">
    <path clip-path="url(#p97ab14b5a6)" d="M 277.929105 58.332374 
L 307.472255 58.332374 
L 307.472255 28.789225 
L 277.929105 28.789225 
z
" style="stroke:#000000;stroke-linejoin:miter;stroke-width:1.5;"/>
   </g>
   <g id="patch_18">
    <path clip-path="url(#p97ab14b5a6)" d="M 303.040782 47.992272 
C 303.040782 45.250958 301.950638 42.619117 300.012236 40.680715 
C 298.073835 38.742314 295.441994 37.65217 292.70068 37.65217 
C 289.959366 37.65217 287.327525 38.742314 285.389123 40.680715 
C 283.450722 42.619117 282.360578 45.250958 282.360578 47.992272 
" style="fill:none;stroke:#ffffff;stroke-linejoin:miter;stroke-width:2;"/>
   </g>
   <g id="patch_19">
    <path clip-path="url(#p97ab14b5a6)" d="M 323.380105 103.783374 
L 352.923254 103.783374 
L 352.923254 74.240224 
L 323.380105 74.240224 
z
" style="stroke:#000000;stroke-linejoin:miter;stroke-width:1.5;"/>
   </g>
   <g id="patch_20">
    <path clip-path="url(#p97ab14b5a6)" d="M 348.491782 93.443271 
C 348.491782 90.701957 347.401638 88.070117 345.463236 86.131715 
C 343.524834 84.193313 340.892993 83.103169 338.151679 83.103169 
C 335.410365 83.103169 332.778525 84.193313 330.840123 86.131715 
C 328.901721 88.070117 327.811577 90.701957 327.811577 93.443271 
" style="fill:none;stroke:#ffffff;stroke-linejoin:miter;stroke-width:2;"/>
   </g>
   <g id="patch_21">
    <path clip-path="url(#p97ab14b5a6)" d="M 368.831104 149.234373 
L 398.374254 149.234373 
L 398.374254 119.691224 
L 368.831104 119.691224 
z
" style="stroke:#000000;stroke-linejoin:miter;stroke-width:1.5;"/>
   </g>
   <g id="patch_22">
    <path clip-path="url(#p97ab14b5a6)" d="M 393.942781 138.894271 
C 393.942781 136.152957 392.852637 133.521116 390.914235 131.582714 
C 388.975834 129.644313 386.343993 128.554168 383.602679 128.554168 
C 380.861365 128.554168 378.229524 129.644313 376.291122 131.582714 
C 374.352721 133.521116 373.262576 136.152957 373.262576 138.894271 
" style="fill:none;stroke:#ffffff;stroke-linejoin:miter;stroke-width:2;"/>
   </g>
   <g id="patch_23">
    <path clip-path="url(#p97ab14b5a6)" d="M 414.282103 194.685373 
L 443.825253 194.685373 
L 443.825253 165.142223 
L 414.282103 165.142223 
z
" style="stroke:#000000;stroke-linejoin:miter;stroke-width:1.5;"/>
   </g>
   <g id="patch_24">
    <path clip-path="url(#p97ab14b5a6)" d="M 439.393781 184.34527 
C 439.393781 181.603956 438.303636 178.972115 436.365235 177.033714 
C 434.426833 175.095312 431.794992 174.005168 429.053678 174.005168 
C 426.312364 174.005168 423.680523 175.095312 421.742122 177.033714 
C 419.80372 178.972115 418.713576 181.603956 418.713576 184.34527 
" style="fill:none;stroke:#ffffff;stroke-linejoin:miter;stroke-width:2;"/>
   </g>
   <g id="line2d_19">
    <path clip-path="url(#p97ab14b5a6)" d="M 292.70068 47.992272 
L 303.040782 37.65217 
" style="fill:none;stroke:#ffffff;stroke-linecap:square;stroke-width:2;"/>
   </g>
   <g id="line2d_20">
    <path clip-path="url(#p97ab14b5a6)" d="M 338.151679 93.443271 
L 348.491782 83.103169 
" style="fill:none;stroke:#ffffff;stroke-linecap:square;stroke-width:2;"/>
   </g>
   <g id="line2d_21">
    <path clip-path="url(#p97ab14b5a6)" d="M 383.602679 138.894271 
L 393.942781 128.554168 
" style="fill:none;stroke:#ffffff;stroke-linecap:square;stroke-width:2;"/>
   </g>
   <g id="line2d_22">
    <path clip-path="url(#p97ab14b5a6)" d="M 429.053678 184.34527 
L 439.393781 174.005168 
" style="fill:none;stroke:#ffffff;stroke-linecap:square;stroke-width:2;"/>
   </g>
   <g id="line2d_23">
    <path clip-path="url(#p97ab14b5a6)" d="M 110.896682 140.371428 
L 110.896682 128.554168 
" style="fill:none;stroke:#ffffff;stroke-linecap:square;stroke-width:2;"/>
   </g>
   <g id="line2d_24">
    <path clip-path="url(#p97ab14b5a6)" d="M 104.988052 134.462798 
L 116.805312 134.462798 
" style="fill:none;stroke:#ffffff;stroke-linecap:square;stroke-width:2;"/>
   </g>
   <g id="line2d_25">
    <path clip-path="url(#p97ab14b5a6)" d="M 156.347682 140.371428 
L 156.347682 128.554168 
" style="fill:none;stroke:#ffffff;stroke-linecap:square;stroke-width:2;"/>
   </g>
   <g id="line2d_26">
    <path clip-path="url(#p97ab14b5a6)" d="M 150.439052 134.462798 
L 162.256312 134.462798 
" style="fill:none;stroke:#ffffff;stroke-linecap:square;stroke-width:2;"/>
   </g>
   <g id="line2d_27">
    <path clip-path="url(#p97ab14b5a6)" d="M 201.798681 185.822428 
L 201.798681 174.005168 
" style="fill:none;stroke:#ffffff;stroke-linecap:square;stroke-width:2;"/>
   </g>
   <g id="line2d_28">
    <path clip-path="url(#p97ab14b5a6)" d="M 195.890051 179.913798 
L 207.707311 179.913798 
" style="fill:none;stroke:#ffffff;stroke-linecap:square;stroke-width:2;"/>
   </g>
   <g id="line2d_29">
    <path clip-path="url(#p97ab14b5a6)" d="M 247.249681 20.8353 
L 247.249681 66.286299 
" style="fill:none;stroke:#000000;stroke-dasharray:3.7,1.6;stroke-dashoffset:0;"/>
   </g>
   <g id="line2d_30">
    <path clip-path="url(#p97ab14b5a6)" d="M 247.249681 66.286299 
L 247.249681 111.737299 
" style="fill:none;stroke:#000000;stroke-dasharray:3.7,1.6;stroke-dashoffset:0;"/>
   </g>
   <g id="line2d_31">
    <path clip-path="url(#p97ab14b5a6)" d="M 247.249681 111.737299 
L 247.249681 157.188298 
" style="fill:none;stroke:#000000;stroke-dasharray:3.7,1.6;stroke-dashoffset:0;"/>
   </g>
   <g id="line2d_32">
    <path clip-path="url(#p97ab14b5a6)" d="M 247.249681 157.188298 
L 247.249681 202.639297 
" style="fill:none;stroke:#000000;stroke-dasharray:3.7,1.6;stroke-dashoffset:0;"/>
   </g>
   <g id="text_1">
    <g clip-path="url(#p97ab14b5a6)">
     <!-- ${q}_{0}$ -->
     <g transform="translate(59.225443 48.011776)scale(0.1625 -0.1625)">
      <defs>
       <path d="M 41.703125 8.203125 
Q 38.09375 3.46875 33.171875 1.015625 
Q 28.265625 -1.421875 22.3125 -1.421875 
Q 14.015625 -1.421875 9.296875 4.171875 
Q 4.59375 9.765625 4.59375 19.578125 
Q 4.59375 27.484375 7.5 34.859375 
Q 10.40625 42.234375 15.828125 48.09375 
Q 19.34375 51.90625 23.90625 53.953125 
Q 28.46875 56 33.5 56 
Q 39.546875 56 43.453125 53.609375 
Q 47.359375 51.21875 49.125 46.390625 
L 50.6875 54.59375 
L 59.71875 54.59375 
L 45.125 -20.609375 
L 36.078125 -20.609375 
z
M 13.921875 20.90625 
Q 13.921875 13.671875 16.9375 9.890625 
Q 19.96875 6.109375 25.6875 6.109375 
Q 34.1875 6.109375 40.1875 14.234375 
Q 46.1875 22.359375 46.1875 33.984375 
Q 46.1875 41.015625 43.078125 44.75 
Q 39.984375 48.484375 34.1875 48.484375 
Q 29.9375 48.484375 26.3125 46.5 
Q 22.703125 44.53125 20.015625 40.71875 
Q 17.1875 36.71875 15.546875 31.34375 
Q 13.921875 25.984375 13.921875 20.90625 
z
" id="DejaVuSans-Oblique-113"/>
       <path d="M 31.78125 66.40625 
Q 24.171875 66.40625 20.328125 58.90625 
Q 16.5 51.421875 16.5 36.375 
Q 16.5 21.390625 20.328125 13.890625 
Q 24.171875 6.390625 31.78125 6.390625 
Q 39.453125 6.390625 43.28125 13.890625 
Q 47.125 21.390625 47.125 36.375 
Q 47.125 51.421875 43.28125 58.90625 
Q 39.453125 66.40625 31.78125 66.40625 
z
M 31.78125 74.21875 
Q 44.046875 74.21875 50.515625 64.515625 
Q 56.984375 54.828125 56.984375 36.375 
Q 56.984375 17.96875 50.515625 8.265625 
Q 44.046875 -1.421875 31.78125 -1.421875 
Q 19.53125 -1.421875 13.0625 8.265625 
Q 6.59375 17.96875 6.59375 36.375 
Q 6.59375 54.828125 13.0625 64.515625 
Q 19.53125 74.21875 31.78125 74.21875 
z
" id="DejaVuSans-48"/>
      </defs>
      <use xlink:href="#DejaVuSans-Oblique-113"/>
      <use transform="translate(63.476562 -16.40625)scale(0.7)" xlink:href="#DejaVuSans-48"/>
     </g>
    </g>
   </g>
   <g id="text_2">
    <g clip-path="url(#p97ab14b5a6)">
     <!-- ${q}_{1}$ -->
     <g transform="translate(59.225443 93.462775)scale(0.1625 -0.1625)">
      <defs>
       <path d="M 12.40625 8.296875 
L 28.515625 8.296875 
L 28.515625 63.921875 
L 10.984375 60.40625 
L 10.984375 69.390625 
L 28.421875 72.90625 
L 38.28125 72.90625 
L 38.28125 8.296875 
L 54.390625 8.296875 
L 54.390625 0 
L 12.40625 0 
z
" id="DejaVuSans-49"/>
      </defs>
      <use xlink:href="#DejaVuSans-Oblique-113"/>
      <use transform="translate(63.476562 -16.40625)scale(0.7)" xlink:href="#DejaVuSans-49"/>
     </g>
    </g>
   </g>
   <g id="text_3">
    <g clip-path="url(#p97ab14b5a6)">
     <!-- ${q}_{2}$ -->
     <g transform="translate(59.225443 138.913775)scale(0.1625 -0.1625)">
      <defs>
       <path d="M 19.1875 8.296875 
L 53.609375 8.296875 
L 53.609375 0 
L 7.328125 0 
L 7.328125 8.296875 
Q 12.9375 14.109375 22.625 23.890625 
Q 32.328125 33.6875 34.8125 36.53125 
Q 39.546875 41.84375 41.421875 45.53125 
Q 43.3125 49.21875 43.3125 52.78125 
Q 43.3125 58.59375 39.234375 62.25 
Q 35.15625 65.921875 28.609375 65.921875 
Q 23.96875 65.921875 18.8125 64.3125 
Q 13.671875 62.703125 7.8125 59.421875 
L 7.8125 69.390625 
Q 13.765625 71.78125 18.9375 73 
Q 24.125 74.21875 28.421875 74.21875 
Q 39.75 74.21875 46.484375 68.546875 
Q 53.21875 62.890625 53.21875 53.421875 
Q 53.21875 48.921875 51.53125 44.890625 
Q 49.859375 40.875 45.40625 35.40625 
Q 44.1875 33.984375 37.640625 27.21875 
Q 31.109375 20.453125 19.1875 8.296875 
z
" id="DejaVuSans-50"/>
      </defs>
      <use xlink:href="#DejaVuSans-Oblique-113"/>
      <use transform="translate(63.476562 -16.40625)scale(0.7)" xlink:href="#DejaVuSans-50"/>
     </g>
    </g>
   </g>
   <g id="text_4">
    <g clip-path="url(#p97ab14b5a6)">
     <!-- ${q}_{3}$ -->
     <g transform="translate(59.225443 184.364774)scale(0.1625 -0.1625)">
      <defs>
       <path d="M 40.578125 39.3125 
Q 47.65625 37.796875 51.625 33 
Q 55.609375 28.21875 55.609375 21.1875 
Q 55.609375 10.40625 48.1875 4.484375 
Q 40.765625 -1.421875 27.09375 -1.421875 
Q 22.515625 -1.421875 17.65625 -0.515625 
Q 12.796875 0.390625 7.625 2.203125 
L 7.625 11.71875 
Q 11.71875 9.328125 16.59375 8.109375 
Q 21.484375 6.890625 26.8125 6.890625 
Q 36.078125 6.890625 40.9375 10.546875 
Q 45.796875 14.203125 45.796875 21.1875 
Q 45.796875 27.640625 41.28125 31.265625 
Q 36.765625 34.90625 28.71875 34.90625 
L 20.21875 34.90625 
L 20.21875 43.015625 
L 29.109375 43.015625 
Q 36.375 43.015625 40.234375 45.921875 
Q 44.09375 48.828125 44.09375 54.296875 
Q 44.09375 59.90625 40.109375 62.90625 
Q 36.140625 65.921875 28.71875 65.921875 
Q 24.65625 65.921875 20.015625 65.03125 
Q 15.375 64.15625 9.8125 62.3125 
L 9.8125 71.09375 
Q 15.4375 72.65625 20.34375 73.4375 
Q 25.25 74.21875 29.59375 74.21875 
Q 40.828125 74.21875 47.359375 69.109375 
Q 53.90625 64.015625 53.90625 55.328125 
Q 53.90625 49.265625 50.4375 45.09375 
Q 46.96875 40.921875 40.578125 39.3125 
z
" id="DejaVuSans-51"/>
      </defs>
      <use xlink:href="#DejaVuSans-Oblique-113"/>
      <use transform="translate(63.476562 -16.40625)scale(0.7)" xlink:href="#DejaVuSans-51"/>
     </g>
    </g>
   </g>
   <g id="text_5">
    <g clip-path="url(#p97ab14b5a6)">
     <!-- 4 -->
     <g transform="translate(90.898243 218.656822)scale(0.104 -0.104)">
      <defs>
       <path d="M 37.796875 64.3125 
L 12.890625 25.390625 
L 37.796875 25.390625 
z
M 35.203125 72.90625 
L 47.609375 72.90625 
L 47.609375 25.390625 
L 58.015625 25.390625 
L 58.015625 17.1875 
L 47.609375 17.1875 
L 47.609375 0 
L 37.796875 0 
L 37.796875 17.1875 
L 4.890625 17.1875 
L 4.890625 26.703125 
z
" id="DejaVuSans-52"/>
      </defs>
      <use xlink:href="#DejaVuSans-52"/>
     </g>
    </g>
   </g>
   <g id="text_6">
    <g clip-path="url(#p97ab14b5a6)">
     <!-- meas -->
     <g transform="translate(33.012162 229.848781)scale(0.1625 -0.1625)">
      <defs>
       <path d="M 52 44.1875 
Q 55.375 50.25 60.0625 53.125 
Q 64.75 56 71.09375 56 
Q 79.640625 56 84.28125 50.015625 
Q 88.921875 44.046875 88.921875 33.015625 
L 88.921875 0 
L 79.890625 0 
L 79.890625 32.71875 
Q 79.890625 40.578125 77.09375 44.375 
Q 74.3125 48.1875 68.609375 48.1875 
Q 61.625 48.1875 57.5625 43.546875 
Q 53.515625 38.921875 53.515625 30.90625 
L 53.515625 0 
L 44.484375 0 
L 44.484375 32.71875 
Q 44.484375 40.625 41.703125 44.40625 
Q 38.921875 48.1875 33.109375 48.1875 
Q 26.21875 48.1875 22.15625 43.53125 
Q 18.109375 38.875 18.109375 30.90625 
L 18.109375 0 
L 9.078125 0 
L 9.078125 54.6875 
L 18.109375 54.6875 
L 18.109375 46.1875 
Q 21.1875 51.21875 25.484375 53.609375 
Q 29.78125 56 35.6875 56 
Q 41.65625 56 45.828125 52.96875 
Q 50 49.953125 52 44.1875 
z
" id="DejaVuSans-109"/>
       <path d="M 56.203125 29.59375 
L 56.203125 25.203125 
L 14.890625 25.203125 
Q 15.484375 15.921875 20.484375 11.0625 
Q 25.484375 6.203125 34.421875 6.203125 
Q 39.59375 6.203125 44.453125 7.46875 
Q 49.3125 8.734375 54.109375 11.28125 
L 54.109375 2.78125 
Q 49.265625 0.734375 44.1875 -0.34375 
Q 39.109375 -1.421875 33.890625 -1.421875 
Q 20.796875 -1.421875 13.15625 6.1875 
Q 5.515625 13.8125 5.515625 26.8125 
Q 5.515625 40.234375 12.765625 48.109375 
Q 20.015625 56 32.328125 56 
Q 43.359375 56 49.78125 48.890625 
Q 56.203125 41.796875 56.203125 29.59375 
z
M 47.21875 32.234375 
Q 47.125 39.59375 43.09375 43.984375 
Q 39.0625 48.390625 32.421875 48.390625 
Q 24.90625 48.390625 20.390625 44.140625 
Q 15.875 39.890625 15.1875 32.171875 
z
" id="DejaVuSans-101"/>
       <path d="M 34.28125 27.484375 
Q 23.390625 27.484375 19.1875 25 
Q 14.984375 22.515625 14.984375 16.5 
Q 14.984375 11.71875 18.140625 8.90625 
Q 21.296875 6.109375 26.703125 6.109375 
Q 34.1875 6.109375 38.703125 11.40625 
Q 43.21875 16.703125 43.21875 25.484375 
L 43.21875 27.484375 
z
M 52.203125 31.203125 
L 52.203125 0 
L 43.21875 0 
L 43.21875 8.296875 
Q 40.140625 3.328125 35.546875 0.953125 
Q 30.953125 -1.421875 24.3125 -1.421875 
Q 15.921875 -1.421875 10.953125 3.296875 
Q 6 8.015625 6 15.921875 
Q 6 25.140625 12.171875 29.828125 
Q 18.359375 34.515625 30.609375 34.515625 
L 43.21875 34.515625 
L 43.21875 35.40625 
Q 43.21875 41.609375 39.140625 45 
Q 35.0625 48.390625 27.6875 48.390625 
Q 23 48.390625 18.546875 47.265625 
Q 14.109375 46.140625 10.015625 43.890625 
L 10.015625 52.203125 
Q 14.9375 54.109375 19.578125 55.046875 
Q 24.21875 56 28.609375 56 
Q 40.484375 56 46.34375 49.84375 
Q 52.203125 43.703125 52.203125 31.203125 
z
" id="DejaVuSans-97"/>
       <path d="M 44.28125 53.078125 
L 44.28125 44.578125 
Q 40.484375 46.53125 36.375 47.5 
Q 32.28125 48.484375 27.875 48.484375 
Q 21.1875 48.484375 17.84375 46.4375 
Q 14.5 44.390625 14.5 40.28125 
Q 14.5 37.15625 16.890625 35.375 
Q 19.28125 33.59375 26.515625 31.984375 
L 29.59375 31.296875 
Q 39.15625 29.25 43.1875 25.515625 
Q 47.21875 21.78125 47.21875 15.09375 
Q 47.21875 7.46875 41.1875 3.015625 
Q 35.15625 -1.421875 24.609375 -1.421875 
Q 20.21875 -1.421875 15.453125 -0.5625 
Q 10.6875 0.296875 5.421875 2 
L 5.421875 11.28125 
Q 10.40625 8.6875 15.234375 7.390625 
Q 20.0625 6.109375 24.8125 6.109375 
Q 31.15625 6.109375 34.5625 8.28125 
Q 37.984375 10.453125 37.984375 14.40625 
Q 37.984375 18.0625 35.515625 20.015625 
Q 33.0625 21.96875 24.703125 23.78125 
L 21.578125 24.515625 
Q 13.234375 26.265625 9.515625 29.90625 
Q 5.8125 33.546875 5.8125 39.890625 
Q 5.8125 47.609375 11.28125 51.796875 
Q 16.75 56 26.8125 56 
Q 31.78125 56 36.171875 55.265625 
Q 40.578125 54.546875 44.28125 53.078125 
z
" id="DejaVuSans-115"/>
      </defs>
      <use xlink:href="#DejaVuSans-109"/>
      <use x="97.412109" xlink:href="#DejaVuSans-101"/>
      <use x="158.935547" xlink:href="#DejaVuSans-97"/>
      <use x="220.214844" xlink:href="#DejaVuSans-115"/>
     </g>
    </g>
   </g>
   <g id="text_7">
    <g clip-path="url(#p97ab14b5a6)">
     <!-- 0 -->
     <g transform="translate(304.06343 218.656822)scale(0.104 -0.104)">
      <use xlink:href="#DejaVuSans-48"/>
     </g>
    </g>
   </g>
   <g id="text_8">
    <g clip-path="url(#p97ab14b5a6)">
     <!-- 1 -->
     <g transform="translate(349.514429 218.656822)scale(0.104 -0.104)">
      <use xlink:href="#DejaVuSans-49"/>
     </g>
    </g>
   </g>
   <g id="text_9">
    <g clip-path="url(#p97ab14b5a6)">
     <!-- 2 -->
     <g transform="translate(394.965429 218.656822)scale(0.104 -0.104)">
      <use xlink:href="#DejaVuSans-50"/>
     </g>
    </g>
   </g>
   <g id="text_10">
    <g clip-path="url(#p97ab14b5a6)">
     <!-- 3 -->
     <g transform="translate(440.416428 218.656822)scale(0.104 -0.104)">
      <use xlink:href="#DejaVuSans-51"/>
     </g>
    </g>
   </g>
  </g>
 </g>
 <defs>
  <clipPath id="p97ab14b5a6">
   <rect height="245.435397" width="451.851338" x="7.2" y="7.2"/>
  </clipPath>
 </defs>
</svg>
